<svg xmlns="http://www.w3.org/2000/svg" viewBox="0 0 187.5 161.3"><defs><style>.cls-1{fill:#bfce4d;}.cls-2{fill:#e1ea6e;}.cls-3{fill:#453a34;}.cls-4{fill:#8f9127;}.cls-5{fill:#6b6b1c;}</style></defs><title>Asset 2</title><g id="Layer_2" data-name="Layer 2"><g id="design"><polygon class="cls-1" points="151.6 161.3 39.4 161.3 26.8 20.2 164.3 20.2 151.6 161.3"/><rect class="cls-2" x="78.6" y="20.2" width="33.8" height="141.04"/><path class="cls-3" d="M182.1,19V64.8a12.5,12.5,0,0,1-12.5,12.5H17.9A12.5,12.5,0,0,1,5.4,64.8V19H182.1m5.4-5.4H0V64.8A17.9,17.9,0,0,0,17.9,82.6H169.6a17.9,17.9,0,0,0,17.9-17.8V13.6Z"/><polygon class="cls-4" points="28.2 35.5 162.9 35.5 164.3 20.2 26.8 20.2 28.2 35.5"/><rect class="cls-1" x="16.1" width="158.9" height="29.76" rx="2.7" ry="2.7"/><rect class="cls-2" x="78.6" width="33.8" height="29.76"/><rect class="cls-5" x="59.5" y="68.9" width="68.4" height="21.42"/></g></g></svg>