<svg xmlns="http://www.w3.org/2000/svg" viewBox="0 0 236.1 54.4"><defs><style>.cls-1{fill:#ffb232;}.cls-2{fill:#890625;}.cls-3{fill:#212224;}.cls-4{fill:#ea9518;}.cls-5{fill:#e5e5e5;}.cls-6{fill:#2d2420;}.cls-7{fill:#fff;opacity:0.5;}</style></defs><title>Asset 2</title><g id="Layer_2" data-name="Layer 2"><g id="design"><path class="cls-1" d="M206.2,34S183.8,11.5,126.3,2.5C57.2-8.3,22.7,19,16.5,24.2s-7.7,11.3,7.2,18,63.4,15,104.1,11.3S206.2,34,206.2,34Z"/><path class="cls-2" d="M78.9.8c-2.6.2-5.1.6-7.5.9l6.4,25.9Z"/><path class="cls-2" d="M94.8,0H88.4l4.8,27.5Z"/><path class="cls-2" d="M112.2.8,106.4.3l4.1,27.3Z"/><path class="cls-2" d="M126.3,2.5,123,2l2.6,26.1,2.9-25.2Z"/><path class="cls-3" d="M6,38.4a6,6,0,1,1,6-6A6,6,0,0,1,6,38.4Zm0-9.8a3.8,3.8,0,1,0,3.8,3.8A3.8,3.8,0,0,0,6,28.6Z"/><path class="cls-4" d="M205,32.9C94.5,49.3,32.3,35.6,12.3,29.6c-1.2,3.9,1.4,8.1,11.4,12.6,15,6.7,63.4,15,104.1,11.3S206.2,34,206.2,34Z"/><path class="cls-5" d="M32.4,23.4a6.8,6.8,0,1,0,6.8-6.8A6.8,6.8,0,0,0,32.4,23.4Z"/><path class="cls-6" d="M36.2,23.4a3,3,0,0,0,3,3,3.1,3.1,0,0,0,3-3,3,3,0,0,0-3-3A2.9,2.9,0,0,0,36.2,23.4Z"/><path class="cls-7" d="M35.9,20.1a3.4,3.4,0,1,0,3.4-3.4A3.4,3.4,0,0,0,35.9,20.1Z"/><path class="cls-3" d="M208.1,37.3a3.8,3.8,0,1,1,0-7.6,3.8,3.8,0,1,1,0,7.6Zm0-6.2a2.4,2.4,0,0,0-2.4,2.4,2.5,2.5,0,0,0,4.9,0A2.4,2.4,0,0,0,208.1,31.1Z"/><path class="cls-3" d="M228.2,34.2h-17V32.8h17a6.5,6.5,0,1,0,0-13h-4a30.1,30.1,0,0,1,6.5,5.3l-1,.9c-.1-.1-5.5-6-9.9-6.2V18.4h8.4a7.9,7.9,0,1,1,0,15.8Z"/><path class="cls-3" d="M228.2,48.5h-8.4V47.1c4.4-.1,9.8-6.1,9.9-6.2l1,1a31,31,0,0,1-6.5,5.2h4a6.5,6.5,0,1,0,0-12.9h-17V32.8h17a7.9,7.9,0,1,1,0,15.7Z"/></g></g></svg>