<svg xmlns="http://www.w3.org/2000/svg" viewBox="0 0 730.4 147.8"><defs><style>.cls-1{fill:#2d2420;}.cls-2{fill:#85042b;}.cls-3{fill:#097fa3;}.cls-4{fill:#493c37;}.cls-5{fill:#ffb232;}.cls-6{fill:#bfce4d;}.cls-7{fill:#fbd448;}</style></defs><title>Asset 1</title><g id="Layer_2" data-name="Layer 2"><g id="design"><g id="fishing_stick" data-name="fishing stick"><polygon class="cls-1" points="289.1 80.2 286.9 79.2 296.3 58.5 323.2 58.5 323.2 60.9 297.9 60.9 289.1 80.2"/><path class="cls-1" d="M327.5,59.5A4.5,4.5,0,1,1,323,55,4.5,4.5,0,0,1,327.5,59.5Z"/><rect class="cls-1" x="322.2" y="59.7" width="1.6" height="21.65"/><polygon class="cls-1" points="323.2 124.8 296.3 124.8 286.9 104 289.1 103 297.9 122.3 323.2 122.3 323.2 124.8"/><path class="cls-1" d="M327.5,123.8a4.5,4.5,0,1,0-4.5,4.5A4.5,4.5,0,0,0,327.5,123.8Z"/><rect class="cls-1" x="322.2" y="101.9" width="1.6" height="21.65"/><rect class="cls-2" x="297.1" y="90.7" width="21.8" height="22.6"/><path class="cls-3" d="M328.8,76H254.1v31.3h74.7a15.7,15.7,0,1,0,0-31.3Z"/><rect class="cls-1" x="329.5" y="69.4" width="5.6" height="44.52"/><path class="cls-1" d="M302.9,132c-1.9-4.9-6.2-4.6-9.3-4.3h-2.3c-4,0-5.6-.9-6.7-3.8s-8.3-22.3-10.6-28.5a4.9,4.9,0,0,0,1.7-3.9,5.4,5.4,0,0,0-10.7,0,5.4,5.4,0,0,0,5.2,5.4c2.3,6.1,9.2,24.8,10.6,28.4,2.1,5.7,6.5,6.5,10.5,6.5h3.6c-1.9,4.8-1.3,10.6.6,13.5a4.8,4.8,0,0,0,4.1,2.6h.2a3.9,3.9,0,0,0,3.3-1.9C305.3,142.7,304.2,135.7,302.9,132Z"/><path class="cls-3" d="M269.3,83.5l-7.6-6.1c.7-.9,17.6-22.1,20.7-25.8a15.1,15.1,0,0,0,3.9-10.5V9h9.8V41.1a25.4,25.4,0,0,1-6.2,16.8C286.9,61.5,269.5,83.3,269.3,83.5Z"/><rect class="cls-1" x="3.3" y="5.6" width="727.1" height="13.07"/><rect class="cls-4" x="3.3" y="5.6" width="727.1" height="6.53"/><rect class="cls-5" width="144.9" height="26.14" rx="8.2" ry="8.2"/><rect class="cls-5" x="153.9" width="121.7" height="26.14" rx="8.2" ry="8.2"/><rect class="cls-6" x="312.9" width="11.7" height="26.14"/><path class="cls-1" d="M512.9,43.9c-2.9,0-5.1-4-5.1-9.2s2.2-9.1,5.1-9.1,5,3.9,5,9.1S515.7,43.9,512.9,43.9Zm0-15.8c-1.1,0-2.6,2.6-2.6,6.6s1.5,6.7,2.6,6.7,2.5-2.6,2.5-6.7S513.9,28.1,512.9,28.1Z"/><rect class="cls-1" x="511.6" y="15.9" width="2.5" height="10.89"/><rect class="cls-5" x="297.1" y="68.1" width="21.8" height="45.2"/><path class="cls-7" d="M140.2,9.3a3.8,3.8,0,0,1-3.7,3.8H8.4A3.8,3.8,0,0,1,4.6,9.3h0A3.8,3.8,0,0,1,8.4,5.6H136.5a3.8,3.8,0,0,1,3.7,3.7Z"/><path class="cls-7" d="M270.6,9.3a3.8,3.8,0,0,1-3.8,3.8H162.6a3.7,3.7,0,0,1-3.7-3.8h0a3.7,3.7,0,0,1,3.7-3.7H266.8a3.8,3.8,0,0,1,3.8,3.7Z"/><rect class="cls-6" x="312.9" width="11.7" height="13.07"/><rect class="cls-7" x="297.1" y="68.1" width="21.8" height="22.6"/></g></g></g></svg>