<svg id="logo" xmlns="http://www.w3.org/2000/svg" viewBox="0 0 202.6 68.7"><title>fishlogo</title><path d="M163.8,117.7s-10.3-1.2-14.2,7.6c0,0-1.5,6.2-5.5,8,0,0,12.6-3.5,16.7-6.3,0,0,4.6-5.3,6.4-6.6" transform="translate(-5.5 -74)" style="fill:#fff;stroke:#fff;stroke-linejoin:round;stroke-width:6px"/><path d="M75.7,102.1" transform="translate(-5.5 -74)" style="fill:#666464"/><path d="M122.4,91.6a17,17,0,0,0-4.3-1.6S107,79.5,104.4,78c0,0-6.8,11.1-9.7,11.9,0,0-.8,1,2.6,1.3,0,0,3.3,0,3.7.4s1.2.4,1.1,1" transform="translate(-5.5 -74)" style="fill:#fff;stroke:#fff;stroke-miterlimit:10;stroke-width:6px"/><path d="M74.8,94.1a29.2,29.2,0,0,0-12.9-3.5s-2.3.5-4.1,4.3c0,0,0,.7,1.1,1.3" transform="translate(-5.5 -74)" style="fill:#fff;stroke:#fff;stroke-miterlimit:10;stroke-width:6px"/><path d="M54.5,112.2C53,112,41.3,117,41.3,117,17.7,131.8,8.5,129.6,8.5,129.6c0-5,8.9-19.2,8.9-19.2,4.7-5.8,1.9-9.6,1.9-9.6C8.9,79.2,10.2,79.1,10.2,79.1c5.7-.1,27.9,10.2,27.9,10.2C42,91.4,48.6,94,48.6,94l5.1,1.9c1.4.9,13.2.5,13.2.5,23.6-6.7,94-6.3,94-6.3l7.8.6s30.5,3.7,35.1,11.9c0,0-7.3,3.8-11.5,7.8,0,0,6.1-.7,7.5-1l5.3-.5s.4.5-7.7,6.3a77.9,77.9,0,0,1-12.5,4.8l-7.3,1.5c-6,1.5-11.7,4.4-16.8,5.5,0,0-14.7,3-39,1.3s-16.6-2.8-35.7-7.4S66.5,114.1,54.5,112.2Z" transform="translate(-5.5 -74)" style="fill:#fff;stroke:#fff;stroke-miterlimit:10;stroke-width:6px"/><path d="M121.8,122s-3.6,15.2-10.3,17.4a26.2,26.2,0,0,1-5.1-8.4,34.9,34.9,0,0,1-1.7-6.4s.3-2.4,2.3-2.6c0,0,3.2,1.1,4.7,0" transform="translate(-5.5 -74)" style="fill:#fff;stroke:#fff;stroke-miterlimit:10;stroke-width:6px"/><path d="M82,118.6a38.2,38.2,0,0,1-9.8,10.1s-2.8,3-4.1,2.7-.3-2.1-.1-4.8a21.6,21.6,0,0,0-5.4-8.7s-1.8-1.5,0-2.3c0,0,.4.1,5-1" transform="translate(-5.5 -74)" style="fill:#fff;stroke:#fff;stroke-miterlimit:10;stroke-width:6px"/><path d="M44.3,116.6" transform="translate(-5.5 -74)" style="fill:none"/><path d="M44.3,91.2" transform="translate(-5.5 -74)" style="fill:none"/><polygon points="8 12.1 29.4 20.3 7.4 14 8 12.1" style="fill:#666565"/><polygon points="12.3 22.2 23.8 24.5 12.1 24.2 12.3 22.2" style="fill:#666565"/><polygon points="13.4 32.8 23.8 31.5 13.9 34.7 13.4 32.8" style="fill:#666565"/><polygon points="10.2 38.4 27.4 35.6 10.7 40.4 10.2 38.4" style="fill:#666565"/><polygon points="6.3 44.7 28.4 38.3 6.9 46.6 6.3 44.7" style="fill:#666565"/><polygon points="3.2 50.3 28.2 42.6 3.9 52.2 3.2 50.3" style="fill:#666565"/><path d="M191.4,100.5a1.1,1.1,0,0,0-.7-.9H189a2.7,2.7,0,0,0-1.1.5c-.6.3-.6.4-.9,1a.9.9,0,0,0,.2,1.3c.9.5,1.5,1.2,2.5.9a1.2,1.2,0,0,0,.9-.4,1.5,1.5,0,0,0,.4-.9l.3-.6" transform="translate(-5.5 -74)" style="fill:#666565"/><path d="M48.7,113.4s4.6-6.2,44.9,9.8c0,0-.8-.1,11.1,3.3" transform="translate(-5.5 -74)" style="fill:none;stroke:#666565;stroke-linecap:round;stroke-linejoin:round;stroke-width:2px"/><path d="M119.8,128.2c5.6.2,16.6.6,24.3.5h4.3" transform="translate(-5.5 -74)" style="fill:none;stroke:#666565;stroke-miterlimit:10;stroke-width:2px"/><path d="M163.8,117.8a19.3,19.3,0,0,0-4.2.3l-1.1.3-1,.3-1,.4-.9.5-.9.5-.9.6-.7.7a2.7,2.7,0,0,0-.8.7l-.6.8-.6.8c-.4.6-.6,1.3-1,1.9h.1a22.5,22.5,0,0,1-.8,2.4,10.1,10.1,0,0,1-1.2,2.3,10.7,10.7,0,0,1-1.5,2.2l-1,.9-.6.4-.6.3-.6-1.5c2.9-.8,5.7-1.9,8.4-2.9l4.1-1.5,2.1-.9,1.8-.9h-.1c1.1-1.1,2.1-2.2,3.3-3.2l1.7-1.5a13.3,13.3,0,0,1,1.9-1.4.1.1,0,0,1,.1.1c.1,0,.1.1,0,.1s-2,2.3-2.9,3.5l-2.9,3.5h-.1l-1,.7-1,.6-2.1,1-2.1.9-2.1.8-4.3,1.3-4.3,1.2a.8.8,0,0,1-1-.6.8.8,0,0,1,.4-.9h0l.5-.3.4-.3a3.1,3.1,0,0,0,.9-.7,9,9,0,0,0,1.5-1.8,10.3,10.3,0,0,0,1.1-2.1,19.5,19.5,0,0,0,.8-2.2h.1a7.8,7.8,0,0,1,1.1-2l.7-.9.7-.8.9-.7.8-.7,1-.6,1-.5,1-.4,1-.3,1.1-.3,1.1-.2a15.5,15.5,0,0,1,4.3-.1.1.1,0,0,1,.1.1Z" transform="translate(-5.5 -74)" style="fill:#666565"/><path d="M122.4,91.6l-2.2-.8-1.1-.2-1-.2h-.3l-7-5.8-3.4-2.9-1.8-1.5-.9-.6-.8-.6,1.3-.3a35.3,35.3,0,0,1-2.1,3.2,37.1,37.1,0,0,1-2.3,3.2,36.1,36.1,0,0,1-2.5,3l-1.5,1.4-.9.7-1,.5.3-.2c.1-.1,0-.1.1-.2h.2l.3.2,1.6.3h-.1l1.9.2h1.7l.3.2h-.1l.7.5a1.1,1.1,0,0,1,.3.7l-.5-.5a1.1,1.1,0,0,0-.7-.3H97.3l-1.8-.2h-.4c-.2-.1-.4-.1-.5-.3a1.3,1.3,0,0,1-.6-.5c0-.2-.1-.4-.1-.6a1.3,1.3,0,0,1,.3-.5h.3a5.7,5.7,0,0,0,1.3-1L97,86.9a23.7,23.7,0,0,0,2.3-3l2.2-3.2a34.5,34.5,0,0,0,2-3.2l.6-.8.8.5,1,.7.9.7,1.8,1.5,3.4,3.1c2.2,2.1,4.3,4.3,6.4,6.5h-.3l1.2.3,1.1.5Z" transform="translate(-5.5 -74)" style="fill:#666565"/><path d="M116.9,91.6,105.1,81l12.5,9.9c.2.1.2.4.1.7a.5.5,0,0,1-.7,0Z" transform="translate(-5.5 -74)" style="fill:#666565"/><path d="M112.1,91.6l-7.8-7.7,8.5,6.9a.6.6,0,0,1,.1.7.5.5,0,0,1-.7.1Z" transform="translate(-5.5 -74)" style="fill:#666565"/><path d="M107.8,91.2,103,86.5l5.5,3.9a.5.5,0,0,1,.1.7.5.5,0,0,1-.7.2Z" transform="translate(-5.5 -74)" style="fill:#666565"/><path d="M104.2,91.8l-3.9-3.7,4.5,2.9a.6.6,0,0,1,.2.7.5.5,0,0,1-.7.1Z" transform="translate(-5.5 -74)" style="fill:#666565"/><path d="M74.8,94.1l-3.3-.9-1.6-.4-1.6-.4-1.6-.2-1.6-.3-1.6-.2-1.6-.2h-.2l-.6.3a4.4,4.4,0,0,0-1.1.9l-.9,1-.9,1.2v-.2h0c0,.2,0,.3.1.4a1.8,1.8,0,0,0,.5.7l-.9-.3-.4-.4-.2-.2v-.2c-.1,0-.1-.1-.1-.2h0v-.2a10.1,10.1,0,0,1,.7-1.5,4.2,4.2,0,0,1,.9-1.4,3.4,3.4,0,0,1,1.2-1.2l.7-.6.4-.2.5-.2H62l3.4.4a13,13,0,0,1,3.4.8,16.9,16.9,0,0,1,3.1,1.3A14.9,14.9,0,0,1,74.8,94.1Z" transform="translate(-5.5 -74)" style="fill:#666565"/><path d="M158.3,96.9v-.2c-.1-.3-.2-.6-.5-.6h-1.2l-.8.3c-.4.2-.5.5-.8.9s-.2.7.1.8a2.9,2.9,0,0,0,2,.5l.6-.2a1.1,1.1,0,0,0,.3-.7l.2-.4C158.2,97.3,158.3,97,158.3,96.9Z" transform="translate(-5.5 -74)" style="fill:#666565"/><path d="M143.9,97h-.1c0-.2-.1-.3-.2-.3h-1.2a1.3,1.3,0,0,0-.5.6c-.1.2-.2.4,0,.5a1.8,1.8,0,0,0,1.2.3h.4l.2-.4V97Z" transform="translate(-5.5 -74)" style="fill:#666565"/><path d="M69.7,93.7h-.1c0-.2-.1-.4-.3-.4h-.7l-.5.2-.5.6a.3.3,0,0,0,.1.5,2.1,2.1,0,0,0,1.2.3l.3-.2a.5.5,0,0,0,.2-.4v-.2Z" transform="translate(-5.5 -74)" style="fill:#666565"/><path d="M61.8,94.7h0l-.2-.2h-.2a.2.2,0,0,0-.3,0h-.3l-.3.4c-.1,0-.1.2,0,.3l.8.2h.2l.2-.3v-.2C61.8,94.9,61.8,94.8,61.8,94.7Z" transform="translate(-5.5 -74)" style="fill:#666565"/><path d="M64.8,92.7h-.1c0-.1,0-.2-.1-.2h-.5l-.3.3V93l.6.2h.2v-.2h.1Z" transform="translate(-5.5 -74)" style="fill:#666565"/><path d="M160.8,127c5.1-1.1,10.8-4,16.8-5.5l7.3-1.5a77.9,77.9,0,0,0,12.5-4.8c8.1-5.8,7.7-6.3,7.7-6.3l-5.3.5c-1.4.3-7.5,1-7.5,1,4.2-4,11.5-7.8,11.5-7.8-4.6-8.2-35.1-11.9-35.1-11.9l-7.8-.6s-70.4-.4-94,6.3c0,0-11.8.4-13.2-.5L48.6,94S42,91.4,38.1,89.3c0,0-22.2-10.3-27.9-10.2,0,0-1.3.1,9.1,21.7,0,0,2.8,3.8-1.9,9.6,0,0-8.9,14.2-8.9,19.2,0,0,9.2,2.2,32.8-12.6,0,0,11.7-5,13.2-4.8" transform="translate(-5.5 -74)" style="fill:none;stroke:#666565;stroke-miterlimit:10;stroke-width:2.09999990463257px"/><path d="M197.7,108.1" transform="translate(-5.5 -74)" style="fill:none;stroke:#d31f26;stroke-linejoin:round;stroke-width:2px"/><path d="M148.5,102.5h0c-.1-.1-.1-.3-.3-.3h-.7l-.5.2a1.2,1.2,0,0,0-.5.5.4.4,0,0,0,0,.5,1.8,1.8,0,0,0,1.2.3h.4l.2-.4a.4.4,0,0,0,.1-.3C148.5,102.8,148.6,102.6,148.5,102.5Z" transform="translate(-5.5 -74)" style="fill:#666565"/><path d="M114.6,98.3h-.1a.3.3,0,0,0-.3-.3h-.7l-.5.2c-.2.1-.3.3-.5.6a.2.2,0,0,0,.1.4c.4.2.8.5,1.2.3h.4c.1-.1.1-.3.2-.4v-.3C114.5,98.6,114.6,98.4,114.6,98.3Z" transform="translate(-5.5 -74)" style="fill:#666565"/><path d="M79.7,100.3a.3.3,0,0,1-.1-.2.5.5,0,0,0-.5-.5l-.4-.2h-.8l-.7.3a4.3,4.3,0,0,0-.9,1c-.1.2-.2.6.1.8s1.3.7,2,.5l.6-.3a.9.9,0,0,0,.3-.6l.2-.4C79.6,100.7,79.7,100.4,79.7,100.3Z" transform="translate(-5.5 -74)" style="fill:#666565"/><path d="M83.2,109.3a.3.3,0,0,1-.1-.2.6.6,0,0,0-.5-.6H81.4l-.7.3a2.8,2.8,0,0,0-.9,1c-.1.3-.2.6.1.8a2.9,2.9,0,0,0,2,.5l.6-.3a.7.7,0,0,0,.3-.6l.2-.4C83.1,109.7,83.2,109.4,83.2,109.3Z" transform="translate(-5.5 -74)" style="fill:#666565"/><path d="M90.5,102.5h-.1a.3.3,0,0,0-.3-.3h-.7l-.5.2c-.2.1-.3.3-.5.5s-.1.4.1.5a1.7,1.7,0,0,0,1.2.3H90a.4.4,0,0,0,.2-.4.4.4,0,0,0,.1-.3C90.4,102.8,90.5,102.6,90.5,102.5Z" transform="translate(-5.5 -74)" style="fill:#666565"/><path d="M104.1,96.3h0c0-.1-.1-.2-.2-.3h-.8l-.4.4a.3.3,0,0,0,0,.4c.3.1.6.3.9.2h.3c0-.1.1-.2.1-.3v-.2C104.1,96.5,104.2,96.3,104.1,96.3Z" transform="translate(-5.5 -74)" style="fill:#666565"/><path d="M125.7,101.8h-.1a.2.2,0,0,0-.2-.2h-.8l-.4.4a.3.3,0,0,0,0,.4c.3.1.6.3.9.2h.3c0-.1.1-.2.1-.3v-.2Z" transform="translate(-5.5 -74)" style="fill:#666565"/><path d="M156.1,103.4a.1.1,0,0,1-.1-.1l-.2-.2H155l-.4.4c-.1.2-.1.3,0,.4s.6.3.9.2h.3v-.3c0-.1.1-.1.1-.2Z" transform="translate(-5.5 -74)" style="fill:#666565"/><path d="M196.4,107.5s-4.1,4.1-5.6,3.4c0,0,7.4,4,15.4-2.8Z" transform="translate(-5.5 -74)" style="fill:#666565"/><path d="M195.9,103.7l-2.8,1.6-2.8,1.7a20.9,20.9,0,0,0-2.9,2.3,2.9,2.9,0,0,0-1,1.3c0,.1,0,.2.1.2a.4.4,0,0,0,.1.3l.5.2a3.8,3.8,0,0,0,1.5-.1l.7-.3.7-.2,2.1-1,.8-.4h0l-.6.6-.8.6-1.2.8-1.4.7a3.3,3.3,0,0,1-2,.2,1.6,1.6,0,0,1-1.4-1.9,3.9,3.9,0,0,1,1.3-1.7,26.4,26.4,0,0,1,3.2-2.2l3-1.5,2.9-1.4Z" transform="translate(-5.5 -74)" style="fill:#666565"/><path d="M171.9,96a31.9,31.9,0,0,0-3.8,6,19.7,19.7,0,0,0-1.8,6.6,12.3,12.3,0,0,0,.3,3.3,8.9,8.9,0,0,0,1.5,2.9,16.5,16.5,0,0,0,2.2,2.4,26.5,26.5,0,0,0,2.6,2.1h.3v.2l.3.4.3.4a2.3,2.3,0,0,0,.7.7c.1.2.3.2.4.3l.5.3h1.1v.2l-.7.2h-1.3l-.6-.2-1.2-.7-.5-.5c-.2-.1-.3-.3-.5-.5l.3.3-1.6-.9-1.6-1.1a11.4,11.4,0,0,1-2.5-2.8,12,12,0,0,1-1.5-7.4,16.9,16.9,0,0,1,2.5-6.9,26.7,26.7,0,0,1,4.3-5.7Z" transform="translate(-5.5 -74)" style="fill:#666565"/><path d="M174.4,101.3a12.1,12.1,0,0,0-.5,1.8,12.9,12.9,0,0,0-.4,1.9c0,.6-.1,1.3-.1,1.9v1.9l.2.9a2.9,2.9,0,0,1,.2.9,3,3,0,0,0,.4.8l.3.8.5.8.6.7.3.3.3.3.7.6h-.2l2.7.8h2.1l-.5.7v-1.9c-.1-.7-.1-1.3-.2-1.9a2.9,2.9,0,0,1-.2-.9l-.3-.8c-.1-.2-.1-.3-.2-.4l-.2-.3-.3-.3-.2-.3-.4-.3v-.2a6.6,6.6,0,0,1-.1-1.4v-1.4a9,9,0,0,1,.7-2.7h.2a11.3,11.3,0,0,0,.1,2.6l.3,1.3.3,1.2-.4-.6.6.4.5.4.4.5.3.5a5.4,5.4,0,0,1,.5,1.1,3.6,3.6,0,0,1,.4,1.1,15,15,0,0,1,.2,2.2,2,2,0,0,1,0,1.1v1.6l-.4.2-.6.2h-1.4l-1.5-.3-2.8-1h-.2l-.8-.8-.3-.3-.3-.5a2.4,2.4,0,0,1-.6-.8l-.5-.9a4.2,4.2,0,0,1-.4-1l-.3-1c0-.3-.2-.6-.2-1v-2c0-.3.1-.6.1-.9a6.4,6.4,0,0,1,.3-2,12.3,12.3,0,0,1,1.2-3.7Z" transform="translate(-5.5 -74)" style="fill:#666565"/><path d="M19.1,107.8" transform="translate(-5.5 -74)" style="fill:none;stroke:#d31f26;stroke-linejoin:round"/><path d="M15.1,115.6" transform="translate(-5.5 -74)" style="fill:none;stroke:#d31f26;stroke-linejoin:round"/><path d="M191.6,103.8l-1.1.6-1.3.2-1.4-.2-.8-.2-.7-.3-.5-.3-.5-.5-.2-.4a.8.8,0,0,1-.1-.4V102h0l.2.3.2.3.3.4.4.3.6.2.6.2h.7a5.7,5.7,0,0,0,1.3,0h2.4Z" transform="translate(-5.5 -74)" style="fill:#666565"/><path d="M121.8,122a31,31,0,0,1-1.1,5.1,18.3,18.3,0,0,1-.8,2.5,18.6,18.6,0,0,1-1,2.5,24.2,24.2,0,0,1-2.6,4.7l-.9,1-1,1-1.2.9-.7.3-.7.3-.5.2-.5-.4-.7-.9-.7-.8-1.2-1.8a22.8,22.8,0,0,1-2-3.8c-.3-.6-.5-1.3-.8-1.9l-.6-2.1a27,27,0,0,1-.7-4.1v-.2h0c0-.2.1-.4.1-.6l.2-.4.6-1a3.5,3.5,0,0,1,.9-.7l1.1-.2h.1a8.6,8.6,0,0,0,2.3.6h1.1a2.7,2.7,0,0,0,1.2-.3,4,4,0,0,1-2.4.7l-2.4-.3h.1a1.5,1.5,0,0,0-1.1.8,1.6,1.6,0,0,0-.4.7.6.6,0,0,1-.1.4v.3h0c.3,1.3.6,2.6,1,3.9l.7,1.8c.3.7.5,1.3.8,1.9a31.2,31.2,0,0,0,2,3.5l1.1,1.6.6.8.6.7-1-.3.5-.2.5-.2,1-.7.8-.8a3.8,3.8,0,0,0,.9-.9,14.3,14.3,0,0,0,1.4-2,23.9,23.9,0,0,0,1.3-2.1A73.9,73.9,0,0,0,121.8,122Z" transform="translate(-5.5 -74)" style="fill:#666565"/><path d="M109.2,127.2" transform="translate(-5.5 -74)" style="fill:none;stroke:#d31f26;stroke-linecap:round;stroke-linejoin:round;stroke-width:2px"/><path d="M109.2,136.7l1.3-1,2.6-2.6a17.1,17.1,0,0,0,2.2-2.9l.3-.6c.1-.2.2-.3.2-.5l.2-.4-.2.5a1.1,1.1,0,0,1-.1.5l-.3.6a18.6,18.6,0,0,1-1.9,3.1,48.7,48.7,0,0,1-3.6,4.1.5.5,0,0,1-.7-.7Z" transform="translate(-5.5 -74)" style="fill:#666565"/><path d="M106.5,130.5h1.2l1.2-.2a7.5,7.5,0,0,0,1.3-.6c.2-.1.5-.2.6-.4s.5-.2.6-.4l1-.9a1.9,1.9,0,0,0,.6-.7l.3-.2-.2.3-.6.7a4.1,4.1,0,0,1-.9,1l-.5.6-.6.4a5,5,0,0,1-1.4.8l-1.3.4h-1.5Z" transform="translate(-5.5 -74)" style="fill:#666565"/><path d="M82,118.6a31.4,31.4,0,0,1-1.8,3.1L78,124.6l-1.2,1.3-1.3,1.3-1.3,1.2-1.5,1.1.2-.2a18,18,0,0,1-2,1.9l-1.1.8-.8.3a2.1,2.1,0,0,1-1.2.1l-.5-.3-.3-.4a1.4,1.4,0,0,1-.2-.6,2.2,2.2,0,0,1-.1-.8c0-.5.1-.9.1-1.3a22.9,22.9,0,0,0,.2-2.5v.3l-.6-1.4-.6-1.5a24,24,0,0,0-1.6-2.7l-.9-1.3a4,4,0,0,0-1-1.2l-.3-.3-.3-.4a4.1,4.1,0,0,1-.5-.9,1.2,1.2,0,0,1,.2-1.3,2.8,2.8,0,0,1,.9-.7h2.7l2.5-.3-2.4.8-1.3.4-.6.2h-.5c-.2.1-.3.3-.4.4v.3l.4.4a.2.2,0,0,0,.2.2l.4.3,1.2,1.2a13.4,13.4,0,0,1,1.1,1.4,29,29,0,0,1,1.9,2.9l.7,1.5.4.8.3.9h0v.2a22.8,22.8,0,0,1-.2,2.6c0,.4-.1.8-.1,1.1v.4c0,.1.1.1,0,0h-.3c-.2-.1,0,0,0-.1h.4l.9-.6,1.8-1.6h.2l1.4-1,1.4-1,2.6-2.3C78.8,122.1,80.4,120.4,82,118.6Z" transform="translate(-5.5 -74)" style="fill:#666565"/><polygon points="58 44.1 62.1 43.7 58.6 46 58 44.1" style="fill:#666565"/><path d="M66.7,123" transform="translate(-5.5 -74)" style="fill:none;stroke:#d31f26;stroke-miterlimit:10"/><polygon points="60.8 48 67.5 45.9 61.6 49.8 60.8 48" style="fill:#666565"/><path d="M67.5,126.6" transform="translate(-5.5 -74)" style="fill:none;stroke:#d31f26;stroke-miterlimit:10"/><polygon points="61.7 51.7 70.6 47.4 62.8 53.4 61.7 51.7" style="fill:#666565"/><path d="M49.7,112.5l3-1.2c1.8-.7,4.3-1.6,6.8-2.3l1.9-.4,1.9-.4L65,108h1.6l-1.5.3-1.7.4-1.8.5-1.8.6a57.8,57.8,0,0,0-6.4,2.8l-2.8,1.5Z" transform="translate(-5.5 -74)" style="fill:#666565"/><path d="M71.9,112.2l11.8,2.1,12,2,13.9,2.1,13.9,1.7,6.4.5,5.8.3h4.8a36.7,36.7,0,0,0,3.8-.3l2.3-.4.9-.3-.8.3-2.4.6-3.7.5-4.9.2h-5.8l-6.5-.4c-4.5-.4-9.2-1-14-1.6l-13.8-2.3c-4.4-.7-8.5-1.6-12-2.3L75.1,113Z" transform="translate(-5.5 -74)" style="fill:#666565"/><path d="M149.4,124.7l2.1-1.2a29.1,29.1,0,0,1,4.6-1.9l1.4-.4,1.3-.2H160l-1.1.3-1.3.3-1.2.5a27.9,27.9,0,0,0-4.3,2.3l-1.8,1.3a.7.7,0,0,1-1-.1.6.6,0,0,1,.1-1Z" transform="translate(-5.5 -74)" style="fill:#666565"/><path d="M147.1,129.5l5.5-2.5,3.8-1.4.8-.2h0l-.7.3-3.6,1.9-5.1,3.1a.8.8,0,0,1-1-.2.8.8,0,0,1,.2-1Z" transform="translate(-5.5 -74)" style="fill:#666565"/><path d="M47.1,110.6v-.2a.6.6,0,0,0-.5-.6h-.4a1.1,1.1,0,0,0-.8,0l-.7.3a2.6,2.6,0,0,0-.9.9c-.1.3-.2.7.1.8a2.9,2.9,0,0,0,2,.5l.6-.2a1.6,1.6,0,0,0,.4-.7c0-.2.1-.2.1-.4S47.2,110.7,47.1,110.6Z" transform="translate(-5.5 -74)" style="fill:#666565"/><path d="M185,93.7a4.3,4.3,0,0,1-.2,1.2,2,2,0,0,1-.4.8l-.8.8a5.1,5.1,0,0,0-1.1,1.6,1.4,1.4,0,0,0-.2.6V99H182v-.3c0-.1-.1-.2-.1-.3V98a4.9,4.9,0,0,1,.1-1.2,2.8,2.8,0,0,1,.4-1.2,2.2,2.2,0,0,1,.5-1.1,1.8,1.8,0,0,1,.8-.7,2.2,2.2,0,0,1,1.2-.2Z" transform="translate(-5.5 -74)" style="fill:#666565"/><path d="M178.6,96.1h0c-.1-.2-.1-.4-.3-.4h-.7l-.5.2a1,1,0,0,0-.5.6.5.5,0,0,0,0,.5c.4.1.8.4,1.2.3l.4-.2a.5.5,0,0,0,.2-.4c.1-.1.1-.1.1-.2S178.7,96.1,178.6,96.1Z" transform="translate(-5.5 -74)" style="fill:#666565"/><path d="M61.9,95a24.2,24.2,0,0,1-3.7,1.6,26.6,26.6,0,0,1-3.9,1.1l-2.3.4-2.4.4L45,99H40.8l-1.6-.2-1.3-.2-1-.2v-.2l1.1.2h2.8l1.9-.2,2.2-.2,4.5-.8L54,96.2l3.9-.8c2.4-.4,4-.5,4-.5Z" transform="translate(-5.5 -74)" style="fill:#666565"/><path d="M55.2,101.8h-.1a.5.5,0,0,0-.2-.4h-.7l-.5.2a1.3,1.3,0,0,0-.5.6.4.4,0,0,0,0,.5,1.8,1.8,0,0,0,1.2.3.7.7,0,0,0,.6-.6V102C55.2,102,55.2,101.9,55.2,101.8Z" transform="translate(-5.5 -74)" style="fill:#666565"/></svg>