<svg xmlns="http://www.w3.org/2000/svg" viewBox="0 0 257.8 89.2"><defs><style>.cls-1{fill:#212224;}.cls-2{fill:#dce1dd;}.cls-3{fill:#890625;}.cls-4{fill:#ffb232;}.cls-5{fill:#2d2420;}.cls-6{fill:#fff;opacity:0.5;}</style></defs><title>Asset 3</title><g id="Layer_2" data-name="Layer 2"><g id="design"><path class="cls-1" d="M171,53.7a5.6,5.6,0,1,1,5.6-5.6A5.6,5.6,0,0,1,171,53.7Zm0-9.2a3.6,3.6,0,1,0,3.5,3.6A3.5,3.5,0,0,0,171,44.5Z"/><path class="cls-1" d="M181.5,89.2A11.6,11.6,0,0,1,170,77.6v-25h2v25a9.6,9.6,0,0,0,19.1,0V71.7a44.6,44.6,0,0,1-7.7,9.5L182,79.7c.1-.1,8.8-8.1,9.1-14.5h2V77.6A11.6,11.6,0,0,1,181.5,89.2Z"/><path class="cls-1" d="M160.5,89.2a11.6,11.6,0,0,1-11.6-11.6V65.2h2c.2,6.4,9,14.4,9.1,14.5l-1.4,1.5a44.6,44.6,0,0,1-7.7-9.5v5.9a9.6,9.6,0,0,0,19.1,0v-25h2v25A11.6,11.6,0,0,1,160.5,89.2Z"/><path class="cls-1" d="M41.1,38.2a5.6,5.6,0,1,1,5.6-5.6A5.6,5.6,0,0,1,41.1,38.2Zm0-9.2a3.6,3.6,0,1,0,3.6,3.6A3.6,3.6,0,0,0,41.1,29Z"/><path class="cls-1" d="M24,54.7H11.6a11.6,11.6,0,1,1,0-23.1H36.5v2H11.6a9.5,9.5,0,1,0,0,19h5.9A36.8,36.8,0,0,1,8,44.9l1.5-1.3c.1.1,8.1,8.8,14.5,9Z"/><path class="cls-1" d="M36.5,33.6H11.6a11.6,11.6,0,1,1,0-23.1H24v2c-6.4.2-14.4,9-14.5,9.1L8,20.2a39.1,39.1,0,0,1,9.5-7.7H11.6a9.6,9.6,0,1,0,0,19.1H36.5Z"/><path class="cls-1" d="M252.2,34.9a5.6,5.6,0,1,1,5.6-5.6A5.6,5.6,0,0,1,252.2,34.9Zm0-9.1a3.5,3.5,0,1,0,3.5,3.5A3.5,3.5,0,0,0,252.2,25.8Z"/><path class="cls-2" d="M247.6,29.7c-.3,4.7-13.6,12.5-35.1,13.4S71.9,39.4,58.6,38.5s-17.5-7.7-5.5-12.7S130.6,0,170.1,0,248.7,13.8,247.6,29.7Z"/><path class="cls-3" d="M53.1,25.8C65.1,20.9,130.6,0,170.1,0s78.6,13.8,77.5,29.7c-.2,2.1-2.9,4.9-7.9,7.3-9.4,1.3-21.5,2.4-25.2-3C196.9,8.8,169.1,4.2,151.3,5.6c-19.6,1.6-43,5.5-61,10.9C66.1,23.9,52.5,28.4,46.6,30.4,47.5,28.9,49.6,27.3,53.1,25.8Z"/><path class="cls-4" d="M222.6,25.3a7,7,0,1,0,7-7A6.9,6.9,0,0,0,222.6,25.3Z"/><path class="cls-5" d="M226.5,25.3a3.1,3.1,0,0,0,3.1,3,3.1,3.1,0,0,0,0-6.1A3.1,3.1,0,0,0,226.5,25.3Z"/><path class="cls-6" d="M183.9,16.2c0,2.1,2.3,3.8,5.1,3.8V12.4C186.2,12.5,183.9,14.2,183.9,16.2Zm.3,10.9H189V24.5A5.2,5.2,0,0,0,184.2,27.1ZM184,3.7a.9.9,0,0,0-.1.5c0,2,2.3,3.7,5.1,3.8V4.2Zm7.7,7.3c0,2.1,2.3,3.8,5.1,3.8V7.2C194,7.3,191.7,8.9,191.7,11ZM176,11c0,2.1,2.3,3.8,5.1,3.8V7.2C178.3,7.3,176,8.9,176,11Zm-7.5-8a2.7,2.7,0,0,0-.3,1.2c0,2,2.3,3.7,5.1,3.8V3.1Zm-.3,13.2c0,2.1,2.3,3.8,5.1,3.8V12.4C170.5,12.5,168.2,14.2,168.2,16.2Zm23.5,6.9c0,2,2.3,3.7,5.1,3.8V19.3C194,19.3,191.7,21,191.7,23.1Zm-15.7,0c0,2,2.3,3.7,5.1,3.8V19.3C178.3,19.3,176,21,176,23.1Zm-7.7,4.6h.9l4.1-.2V24.5C170.8,24.5,168.7,25.9,168.3,27.7ZM100.4,14.5a7.6,7.6,0,0,0,2.1.3v-.9Zm-5.7,1.4-4.9,1.4c.6,1.5,2.6,2.7,4.9,2.7Zm65.6,7.2c0,2,2.2,3.7,5.1,3.8V19.3C162.5,19.3,160.3,21,160.3,23.1Zm-42.1-8.3V10.3l-5.1,1.1C113.4,13.3,115.6,14.8,118.2,14.8ZM141.9,8V5l-4.5.9A5.7,5.7,0,0,0,141.9,8Zm57.7,8.2c0,2.1,2.3,3.8,5.1,3.8V12.4C201.9,12.5,199.6,14.2,199.6,16.2Zm7.8-5.2c0,2.1,2.3,3.8,5.1,3.8V9.9l-3.8-1.3A3.1,3.1,0,0,0,207.4,11Zm0,12.1a3.5,3.5,0,0,0,1.2,2.4l3.9-.8V19.3C209.7,19.3,207.4,21,207.4,23.1Zm8-6.9c0,2.1,2.2,3.8,5.1,3.8V12.4C217.6,12.5,215.4,14.2,215.4,16.2ZM204.7,8V7.3l-4-1.1h-.3A6,6,0,0,0,204.7,8Zm-4.6,18.7,4.6-.5V24.5A5.4,5.4,0,0,0,200.1,26.7ZM105.3,16.2c0,2.1,2.3,3.8,5.1,3.8V12.4C107.6,12.5,105.3,14.2,105.3,16.2Zm-7.9,6.9a3.4,3.4,0,0,0,1.3,2.5l3.8.3V19.3C99.7,19.3,97.4,21,97.4,23.1Zm13,1.4a5.7,5.7,0,0,0-4.1,1.6h4.1ZM160.3,11c0,2.1,2.2,3.8,5.1,3.8V7.2C162.5,7.3,160.3,8.9,160.3,11ZM94.7,24.5a6,6,0,0,0-2.4.5l2.4.2ZM121,16.2c0,2.1,2.3,3.8,5.1,3.8V12.4C123.3,12.5,121,14.2,121,16.2ZM81.7,23.1v.5l5.1.7v-5C83.9,19.3,81.7,21,81.7,23.1Zm31.4,0a3.6,3.6,0,0,0,2.3,3.1h2.8V19.3C115.4,19.3,113.1,21,113.1,23.1ZM152.6,3.5a1.5,1.5,0,0,0-.1.7c0,2,2.3,3.7,5.1,3.8V3.2A40.7,40.7,0,0,0,152.6,3.5ZM121.8,26.3l4.3.3V24.5A5.9,5.9,0,0,0,121.8,26.3Zm30.7,1.8h5.1V24.5C154.8,24.5,152.6,26.1,152.5,28.1Zm-8-17.1c0,2.1,2.3,3.8,5.1,3.8V7.2C146.8,7.3,144.5,8.9,144.5,11Zm8,5.2c0,2.1,2.3,3.8,5.1,3.8V12.4C154.8,12.5,152.5,14.2,152.5,16.2Zm-8,6.9c0,2,2.3,3.7,5.1,3.8V19.3C146.8,19.3,144.5,21,144.5,23.1Zm-15.7,0c0,2,2.3,3.7,5.1,3.8V19.3C131.1,19.3,128.8,21,128.8,23.1Zm0-12.1c0,2.1,2.3,3.8,5.1,3.8V7.2C131.1,7.3,128.8,8.9,128.8,11Zm8.1,16.4,5,.3V24.5A5.3,5.3,0,0,0,136.9,27.4Zm-.1-11.2c0,2.1,2.2,3.8,5.1,3.8V12.4C139,12.5,136.8,14.2,136.8,16.2Z"/><path class="cls-6" d="M144.1,39.1c49.5,2.1,77,1.1,92.1-.5a75.6,75.6,0,0,1-23.7,4.5c-21.6.9-140.6-3.7-153.9-4.6-7.7-.5-12.4-3-12.6-5.9C52.5,33.5,74.9,36.1,144.1,39.1Z"/><path class="cls-6" d="M226.2,21.9a3.5,3.5,0,1,0,7,0,3.5,3.5,0,0,0-7,0Z"/></g></g></svg>