<?xml version="1.0" encoding="utf-8"?>
<!-- Generator: Adobe Illustrator 22.1.0, SVG Export Plug-In . SVG Version: 6.00 Build 0)  -->
<svg version="1.1" id="Capa_1" xmlns="http://www.w3.org/2000/svg" xmlns:xlink="http://www.w3.org/1999/xlink" x="0px" y="0px"
	 viewBox="0 0 512 512" style="enable-background:new 0 0 512 512;" xml:space="preserve">
<style type="text/css">
	.st0{fill:#FFFFFF;stroke:#000000;stroke-miterlimit:10;}
</style>
<g>
	<g>
		<polygon class="st0" points="448,224 448,160 416,160 416,224 352,224 352,256 416,256 416,320 448,320 448,256 512,256 512,224 
					"/>
	</g>
</g>
<g>
	<g>
		<path class="st0" d="M160,224v64h90.5c-13.2,37.2-48.8,64-90.5,64c-52.9,0-96-43.1-96-96s43.1-96,96-96c22.9,0,45,8.2,62.2,23.2
			l42-48.3C235.4,109.8,198.4,96,160,96C71.8,96,0,167.8,0,256s71.8,160,160,160s160-71.8,160-160v-32H160z"/>
	</g>
</g>
</svg>
