<svg xmlns="http://www.w3.org/2000/svg" viewBox="0 0 202 272.7"><defs><style>.cls-1{fill:#8f9127;}.cls-2{fill:#bfce4d;}.cls-3{fill:#6b6b1c;}</style></defs><title>Asset 2</title><g id="Layer_2" data-name="Layer 2"><g id="vexels"><g id="vest"><path class="cls-1" d="M101.9,260.6c11.3,0,22.3.3,32.5.8L133.5.9A42.4,42.4,0,0,1,101,16.3,42.4,42.4,0,0,1,68,.6L47.5,25.2l7.7,237.4C69.2,261.4,85,260.7,101.9,260.6Z"/><path class="cls-2" d="M0,37.1S24.5,126.9,24.7,178l.4,94.7,63.6-.3L68.3.2S15.1,21.9,0,37.1Z"/><path class="cls-2" d="M202,36.4s-23.8,89.9-23.6,141l.3,94.7-63.6.2L133.5,0S186.7,21.2,202,36.4Z"/><rect class="cls-3" x="27.9" y="90.2" width="39.7" height="44.23" rx="3.1" ry="3.1" transform="translate(-0.4 0.2) rotate(-0.2)"/><path class="cls-1" d="M64.5,90.1H31a3.1,3.1,0,0,0-2.6,1.4,22.8,22.8,0,0,0-.2,2.6,19.6,19.6,0,0,0,39.1-.1,24.8,24.8,0,0,0-.3-2.7A3,3,0,0,0,64.5,90.1Z"/><rect class="cls-3" x="134.9" y="89.8" width="39.7" height="44.23" rx="3.1" ry="3.1" transform="translate(-0.4 0.6) rotate(-0.2)"/><path class="cls-1" d="M137.9,89.8h33.6A3,3,0,0,1,174,91a24.5,24.5,0,0,1,.2,2.7,19.5,19.5,0,1,1-39,.1,21.1,21.1,0,0,1,.2-2.6A3.1,3.1,0,0,1,137.9,89.8Z"/><rect class="cls-1" x="47.2" y="134.4" width="1.8" height="138.21" transform="translate(-0.8 0.2) rotate(-0.2)"/><rect class="cls-1" x="154.2" y="134" width="1.8" height="138.21" transform="translate(-0.8 0.6) rotate(-0.2)"/></g></g></g></svg>